<?xml version="1.0" encoding="utf-8"?>
<!-- Generator: Adobe Illustrator 24.1.2, SVG Export Plug-In . SVG Version: 6.00 Build 0)  -->
<svg version="1.2" baseProfile="tiny" id="Layer_1" xmlns="http://www.w3.org/2000/svg" xmlns:xlink="http://www.w3.org/1999/xlink"
	 x="0px" y="0px" viewBox="0 0 50 50" overflow="visible" xml:space="preserve">
<path fill="#878787" stroke="#FFFFFF" stroke-width="4.0016" stroke-miterlimit="10" d="M27.1,3.8l5.1,10.9c0.3,0.7,1,1.2,1.7,1.3
	l11.6,1.8c1.8,0.3,2.6,2.5,1.3,3.9l-8.6,8.8c-0.5,0.5-0.7,1.3-0.6,2l2,12.3c0.3,1.9-1.7,3.3-3.4,2.4l-10.2-5.7
	c-0.7-0.4-1.5-0.4-2.2,0l-10.2,5.7c-1.7,0.9-3.7-0.5-3.4-2.4l2-12.3c0.1-0.7-0.1-1.5-0.6-2l-8.6-8.8c-1.3-1.3-0.5-3.6,1.3-3.9
	l11.6-1.8c0.8-0.1,1.4-0.6,1.7-1.3l5.1-10.9C23.7,2.1,26.3,2.1,27.1,3.8z"/>
</svg>
